<?xml version="1.0" encoding="UTF-8" standalone="no"?><svg xmlns="http://www.w3.org/2000/svg" xmlns:xlink="http://www.w3.org/1999/xlink" contentScriptType="application/ecmascript" contentStyleType="text/css" height="868px" preserveAspectRatio="none" style="width:1045px;height:867px;background:#FFFFFF;" version="1.1" viewBox="0 0 1045 867" width="1045.8px" zoomAndPan="magnify"><defs><filter height="300%" id="f69edxv8p0z3" width="300%" x="-1" y="-1"><feGaussianBlur result="blurOut" stdDeviation="2.7999999999999994"/><feColorMatrix in="blurOut" result="blurOut2" type="matrix" values="0 0 0 0 0 0 0 0 0 0 0 0 0 0 0 0 0 0 .4 0"/><feOffset dx="5.599999999999999" dy="5.599999999999999" in="blurOut2" result="blurOut3"/><feBlend in="SourceGraphic" in2="blurOut3" mode="normal"/></filter></defs><g><!--MD5=[c25bfb6aac2b8e33a2ce971e6e4be7da]
cluster BriarJar (GUI/TUI)--><polygon fill="#FFFFFF" filter="url(#f69edxv8p0z3)" points="188.3,8.4,385.7,8.4,395.5,39.6156,1022,39.6156,1022,702.8,188.3,702.8,188.3,8.4" style="stroke:#000000;stroke-width:2.0999999999999996;"/><line style="stroke:#000000;stroke-width:2.0999999999999996;" x1="188.3" x2="395.5" y1="39.6156" y2="39.6156"/><text fill="#000000" font-family="sans-serif" font-size="19.6" font-weight="bold" lengthAdjust="spacing" textLength="189" x="193.9" y="29.3932">BriarJar (GUI/TUI)</text><ellipse cx="350.533" cy="79.7666" fill="#FEFECE" filter="url(#f69edxv8p0z3)" rx="95.033" ry="22.3666" style="stroke:#A80036;stroke-width:2.0999999999999996;"/><text fill="#000000" font-family="sans-serif" font-size="19.6" lengthAdjust="spacing" textLength="121.8" x="285.433" y="85.0132">Add Contact</text><ellipse cx="350.9968" cy="177.7194" fill="#FEFECE" filter="url(#f69edxv8p0z3)" rx="115.7968" ry="26.5194" style="stroke:#A80036;stroke-width:2.0999999999999996;"/><text fill="#000000" font-family="sans-serif" font-size="19.6" lengthAdjust="spacing" textLength="175" x="262.5291" y="182.0301">Chat with Contact</text><ellipse cx="350.4022" cy="289.9696" fill="#FEFECE" filter="url(#f69edxv8p0z3)" rx="119.4022" ry="36.5696" style="stroke:#A80036;stroke-width:2.0999999999999996;"/><text fill="#000000" font-family="sans-serif" font-size="19.6" lengthAdjust="spacing" textLength="145.6" x="273.4022" y="283.8084">Alter Contact's</text><text fill="#000000" font-family="sans-serif" font-size="19.6" lengthAdjust="spacing" textLength="137.2" x="277.6022" y="306.624">Display Name</text><ellipse cx="350.5231" cy="428.4992" fill="#FEFECE" filter="url(#f69edxv8p0z3)" rx="139.8231" ry="52.5992" style="stroke:#A80036;stroke-width:2.0999999999999996;"/><text fill="#000000" font-family="sans-serif" font-size="19.6" lengthAdjust="spacing" textLength="65.8" x="317.6231" y="409.669">Delete</text><text fill="#000000" font-family="sans-serif" font-size="19.6" lengthAdjust="spacing" textLength="175" x="263.0231" y="432.4846">local Chat History</text><text fill="#000000" font-family="sans-serif" font-size="19.6" lengthAdjust="spacing" textLength="116.2" x="292.4231" y="455.3002">per Contact</text><ellipse cx="350.3974" cy="555.5995" fill="#FEFECE" filter="url(#f69edxv8p0z3)" rx="111.6974" ry="25.6995" style="stroke:#A80036;stroke-width:2.0999999999999996;"/><text fill="#000000" font-family="sans-serif" font-size="19.6" lengthAdjust="spacing" textLength="165.2" x="265.3498" y="560.3658">Remove Contact</text><ellipse cx="350.9347" cy="655.3869" fill="#FEFECE" filter="url(#f69edxv8p0z3)" rx="106.6347" ry="24.6869" style="stroke:#A80036;stroke-width:2.0999999999999996;"/><text fill="#000000" font-family="sans-serif" font-size="19.6" lengthAdjust="spacing" textLength="152.6" x="270.4347" y="660.6335">Delete Account</text><ellipse cx="868.937" cy="208.7874" fill="#FEFECE" filter="url(#f69edxv8p0z3)" rx="131.137" ry="29.5874" style="stroke:#A80036;stroke-width:2.0999999999999996;"/><text fill="#000000" font-family="sans-serif" font-size="19.6" lengthAdjust="spacing" textLength="210" x="763.937" y="212.7728">Get own Contact Link</text><ellipse cx="868.3944" cy="93.8662" fill="#FEFECE" filter="url(#f69edxv8p0z3)" rx="113.0944" ry="36.4662" style="stroke:#A80036;stroke-width:2.0999999999999996;"/><text fill="#000000" font-family="sans-serif" font-size="19.6" lengthAdjust="spacing" textLength="64.4" x="836.1944" y="86.4437">Assign</text><text fill="#000000" font-family="sans-serif" font-size="19.6" lengthAdjust="spacing" textLength="137.2" x="799.7944" y="109.2593">Display Name</text><path d="M138.6,728.7 L138.6,786.8 L53.494,792.4 L138.6,798 L138.6,856.7781 A0,0 0 0 0 138.6,856.7781 L562.8,856.7781 A0,0 0 0 0 562.8,856.7781 L562.8,742.7 L548.8,728.7 L138.6,728.7 A0,0 0 0 0 138.6,728.7 " fill="#FBFB77" filter="url(#f69edxv8p0z3)" style="stroke:#A80036;stroke-width:1.3999999999999997;"/><path d="M548.8,728.7 L548.8,742.7 L562.8,742.7 L548.8,728.7 " fill="#FBFB77" style="stroke:#A80036;stroke-width:1.3999999999999997;"/><text fill="#000000" font-family="sans-serif" font-size="23.8" font-weight="bold" lengthAdjust="spacing" textLength="394.8" x="147" y="757.7917">Version: DRAFT (2022-01-31)</text><text fill="#000000" font-family="sans-serif" font-size="18.2" lengthAdjust="spacing" textLength="0" x="152.6" y="780.2983"/><text fill="#000000" font-family="sans-serif" font-size="19.6" font-weight="bold" lengthAdjust="spacing" textLength="309.4" x="147" y="802.7838">Further needs/possibilities:</text><ellipse cx="154.7" cy="818.0922" fill="#000000" rx="3.5" ry="3.5" style="stroke:#000000;stroke-width:0.0;"/><text fill="#000000" font-family="sans-serif" font-size="18.2" lengthAdjust="spacing" textLength="9.8" x="165.2" y="824.2999">?</text><text fill="#000000" font-family="sans-serif" font-size="18.2" lengthAdjust="spacing" textLength="0" x="152.6" y="845.4858"/><ellipse cx="30.7323" cy="792.2059" fill="#FEFECE" filter="url(#f69edxv8p0z3)" rx="22.3323" ry="18.7059" style="stroke:#A80036;stroke-width:2.0999999999999996;"/><text fill="#000000" font-family="sans-serif" font-size="19.6" lengthAdjust="spacing" textLength="0" x="33.5323" y="796.1912"/><!--MD5=[8fc3522a43f8c7199df5e09e5bb0188e]
entity user--><ellipse cx="30.8" cy="316.4" fill="#FEFECE" filter="url(#f69edxv8p0z3)" rx="11.2" ry="11.2" style="stroke:#A80036;stroke-width:2.0999999999999996;"/><path d="M30.8,327.6 L30.8,365.4 M12.6,338.8 L49,338.8 M30.8,365.4 L12.6,386.4 M30.8,365.4 L49,386.4 " fill="none" filter="url(#f69edxv8p0z3)" style="stroke:#A80036;stroke-width:2.0999999999999996;"/><text fill="#000000" font-family="sans-serif" font-size="19.6" lengthAdjust="spacing" textLength="44.8" x="8.4" y="412.2932">User</text><!--MD5=[d167ef4ac8e91900b1f67c1260a8aa27]
link user to ac--><path d="M42.952,302.722 C56.112,248.976 83.804,170.296 138.6,126 C171.36,99.512 216.02,87.388 255.794,82.11 " fill="none" id="user-ac" style="stroke:#A80036;stroke-width:1.3999999999999997;"/><!--MD5=[4e4f4dd54239bc4437f70b7c6f8ddf4f]
link user to cwc--><path d="M53.396,321.678 C72.002,291.76 101.822,251.398 138.6,228.2 C170.408,208.124 209.524,196.056 245.364,188.776 " fill="none" id="user-cwc" style="stroke:#A80036;stroke-width:1.3999999999999997;"/><!--MD5=[9f711a52637a649015bbd742a669b3ed]
link user to acdn--><path d="M53.662,353.136 C65.786,349.482 81.27,345.03 95.2,341.6 C145.04,329.336 200.886,317.73 247.492,308.616 " fill="none" id="user-acdn" style="stroke:#A80036;stroke-width:1.3999999999999997;"/><!--MD5=[64642889970b27e933cf67b0f550e871]
link user to dlchpc--><path d="M53.494,364.406 C89.18,372.134 163.576,388.22 228.816,402.332 " fill="none" id="user-dlchpc" style="stroke:#A80036;stroke-width:1.3999999999999997;"/><!--MD5=[dae815de3da471ad34c18e770ceede1a]
link user to rc--><path d="M53.55,403.998 C71.694,436.87 100.814,480.242 138.6,505.4 C170.38,526.554 210.084,538.86 246.428,546 " fill="none" id="user-rc" style="stroke:#A80036;stroke-width:1.3999999999999997;"/><!--MD5=[cd6e334a3ca6e4dc13053bed76f554f6]
link user to da--><path d="M41.496,416.542 C53.788,473.046 81.018,558.11 138.6,606.2 C168.574,631.232 208.978,644.014 246.372,650.37 " fill="none" id="user-da" style="stroke:#A80036;stroke-width:1.3999999999999997;"/><!--MD5=[20d1ae7ac742bf1b2d29b3d0e6af3be2]
link ac to gocl--><path d="M423.01,94.444 C463.974,103.124 516.432,114.632 562.8,126 C639.142,144.718 725.578,168.406 786.8,185.612 " fill="none" id="ac-gocl" style="stroke:#A80036;stroke-width:1.3999999999999997;stroke-dasharray:7.0,7.0;"/><text fill="#000000" font-family="sans-serif" font-size="18.2" lengthAdjust="spacing" textLength="88.2" x="606.2" y="133.0937">«include»</text><!--MD5=[66cd2d2db1cd6dace8594df401f323a7]
link ac to an--><path d="M445.396,82.334 C532.532,84.7 662.718,88.242 755.412,90.762 " fill="none" id="ac-an" style="stroke:#A80036;stroke-width:1.3999999999999997;stroke-dasharray:7.0,7.0;"/><text fill="#000000" font-family="sans-serif" font-size="18.2" lengthAdjust="spacing" textLength="88.2" x="606.2" y="81.2937">«include»</text><!--MD5=[544df743b1b64aa6860e465a26a070ac]
@startuml

note "=Version: DRAFT (2022-01-31)\n\n===Further needs/possibilities:\n*?\n" as version
( ) .down. version



    actor User AS user

package "BriarJar (GUI/TUI)" {
left to right direction

        usecase ac AS "Add Contact"
        usecase cwc AS "Chat with Contact"
        usecase acdn AS "Alter Contact's\nDisplay Name"
        usecase dlchpc AS "Delete\nlocal Chat History\nper Contact"
        usecase rc AS "Remove Contact"
        usecase da AS "Delete Account"

        usecase gocl AS "Get own Contact Link"
        usecase an AS "Assign\nDisplay Name"

        user - - ac
        user - - cwc
        user - - acdn
        user - - dlchpc
        user - - rc
        user - - da

        ac .. gocl : <<include>>
        ac .. an : <<include>>
}

@enduml

PlantUML version 1.2022.0(Tue Jan 11 17:16:42 CET 2022)
(GPL source distribution)
Java Runtime: OpenJDK Runtime Environment
JVM: OpenJDK 64-Bit Server VM
Default Encoding: UTF-8
Language: en
Country: GB
--></g></svg>