<?xml version="1.0" encoding="UTF-8" standalone="no"?><svg xmlns="http://www.w3.org/2000/svg" xmlns:xlink="http://www.w3.org/1999/xlink" contentScriptType="application/ecmascript" contentStyleType="text/css" height="1502.4px" preserveAspectRatio="none" style="width:1089px;height:1502px;background:#FFFFFF;" version="1.1" viewBox="0 0 1089 1502" width="1089.6px" zoomAndPan="magnify"><defs><filter height="300%" id="f7lo7w47ars4n" width="300%" x="-1" y="-1"><feGaussianBlur result="blurOut" stdDeviation="2.4"/><feColorMatrix in="blurOut" result="blurOut2" type="matrix" values="0 0 0 0 0 0 0 0 0 0 0 0 0 0 0 0 0 0 .4 0"/><feOffset dx="4.8" dy="4.8" in="blurOut2" result="blurOut3"/><feBlend in="SourceGraphic" in2="blurOut3" mode="normal"/></filter></defs><g><!--MD5=[c25bfb6aac2b8e33a2ce971e6e4be7da]
cluster BriarJar (GUI/TUI)--><rect fill="#FFFFFF" filter="url(#f7lo7w47ars4n)" height="1479.6" style="stroke:#000000;stroke-width:1.7999999999999998;" width="982.8" x="92.4" y="8.4"/><text fill="#000000" font-family="sans-serif" font-size="16.8" font-weight="bold" lengthAdjust="spacing" textLength="162" x="502.8" y="26.3941">BriarJar (GUI/TUI)</text><!--MD5=[71cd5b42ac88160bafda7950dc2c7e45]
cluster Account Management--><polygon fill="#FFFFFF" filter="url(#f7lo7w47ars4n)" points="157.2,60,372,60,380.4,86.7563,1046.4,86.7563,1046.4,517.2,157.2,517.2,157.2,60" style="stroke:#000000;stroke-width:1.7999999999999998;"/><line style="stroke:#000000;stroke-width:1.7999999999999998;" x1="157.2" x2="380.4" y1="86.7563" y2="86.7563"/><text fill="#000000" font-family="sans-serif" font-size="16.8" font-weight="bold" lengthAdjust="spacing" textLength="207.6" x="162" y="77.9941">Account Management</text><!--MD5=[8686fa4c80d34c3e7acf3769129136a9]
cluster Contact Management--><polygon fill="#FFFFFF" filter="url(#f7lo7w47ars4n)" points="121.2,546,332.4,546,340.8,572.7563,1017.6,572.7563,1017.6,1113.6,121.2,1113.6,121.2,546" style="stroke:#000000;stroke-width:1.7999999999999998;"/><line style="stroke:#000000;stroke-width:1.7999999999999998;" x1="121.2" x2="340.8" y1="572.7563" y2="572.7563"/><text fill="#000000" font-family="sans-serif" font-size="16.8" font-weight="bold" lengthAdjust="spacing" textLength="204" x="126" y="563.9941">Contact Management</text><!--MD5=[0f33e620d96b4adc56b5785025e36272]
cluster Conversation Management--><polygon fill="#FFFFFF" filter="url(#f7lo7w47ars4n)" points="170.4,1142.4,434.4,1142.4,442.8,1169.1563,446.4,1169.1563,446.4,1412.4,170.4,1412.4,170.4,1142.4" style="stroke:#000000;stroke-width:1.7999999999999998;"/><line style="stroke:#000000;stroke-width:1.7999999999999998;" x1="170.4" x2="442.8" y1="1169.1563" y2="1169.1563"/><text fill="#000000" font-family="sans-serif" font-size="16.8" font-weight="bold" lengthAdjust="spacing" textLength="256.8" x="175.2" y="1160.3941">Conversation Management</text><path d="M610.8,1322.4 L610.8,1411.92 L327.324,1449.852 L610.8,1421.52 L610.8,1468.5 A0,0 0 0 0 610.8,1468.5 L974.4,1468.5 A0,0 0 0 0 974.4,1468.5 L974.4,1334.4 L962.4,1322.4 L610.8,1322.4 A0,0 0 0 0 610.8,1322.4 " fill="#FBFB77" filter="url(#f7lo7w47ars4n)" style="stroke:#A80036;stroke-width:1.2;"/><path d="M962.4,1322.4 L962.4,1334.4 L974.4,1334.4 L962.4,1322.4 " fill="#FBFB77" style="stroke:#A80036;stroke-width:1.2;"/><text fill="#000000" font-family="sans-serif" font-size="20.4" font-weight="bold" lengthAdjust="spacing" textLength="338.4" x="618" y="1347.3357">Version: DRAFT (2022-01-27)</text><text fill="#000000" font-family="sans-serif" font-size="15.6" lengthAdjust="spacing" textLength="0" x="622.8" y="1366.6271"/><text fill="#000000" font-family="sans-serif" font-size="16.8" font-weight="bold" lengthAdjust="spacing" textLength="265.2" x="618" y="1385.9004">Further needs/possibilities:</text><text fill="#000000" font-family="sans-serif" font-size="15.6" lengthAdjust="spacing" textLength="267.6" x="637.2" y="1404.3428">*Set/Change Contact's Nickname?</text><text fill="#000000" font-family="sans-serif" font-size="15.6" lengthAdjust="spacing" textLength="270" x="637.2" y="1422.5021">*Split Diagram into multiple ones?</text><text fill="#000000" font-family="sans-serif" font-size="15.6" lengthAdjust="spacing" textLength="22.8" x="637.2" y="1440.6615">*...</text><text fill="#000000" font-family="sans-serif" font-size="15.6" lengthAdjust="spacing" textLength="0" x="622.8" y="1458.8209"/><ellipse cx="307.742" cy="1451.8336" fill="#FEFECE" filter="url(#f7lo7w47ars4n)" rx="19.142" ry="16.0336" style="stroke:#A80036;stroke-width:1.7999999999999998;"/><text fill="#000000" font-family="sans-serif" font-size="16.8" lengthAdjust="spacing" textLength="0" x="310.142" y="1455.2496"/><ellipse cx="308.0635" cy="152.3115" fill="#FEFECE" filter="url(#f7lo7w47ars4n)" rx="131.6635" ry="49.7115" style="stroke:#A80036;stroke-width:1.7999999999999998;"/><text fill="#000000" font-family="sans-serif" font-size="16.8" lengthAdjust="spacing" textLength="140.4" x="229.1635" y="131.3712">Sign-Up Account</text><line style="stroke:#A80036;stroke-width:1.2;" x1="185.517" x2="430.6099" y1="135.3333" y2="135.3333"/><text fill="#000000" font-family="sans-serif" font-size="16.8" font-weight="bold" lengthAdjust="spacing" textLength="151.2" x="223.7635" y="155.7275">Extension Point</text><text fill="#000000" font-family="sans-serif" font-size="16.8" lengthAdjust="spacing" textLength="175.2" x="211.7635" y="175.2837">Throw Account Error</text><ellipse cx="308.0012" cy="265.3602" fill="#FEFECE" filter="url(#f7lo7w47ars4n)" rx="91.4012" ry="21.1602" style="stroke:#A80036;stroke-width:1.7999999999999998;"/><text fill="#000000" font-family="sans-serif" font-size="16.8" lengthAdjust="spacing" textLength="130.8" x="239.0012" y="269.8573">Delete Account</text><ellipse cx="307.5383" cy="374.4818" fill="#FEFECE" filter="url(#f7lo7w47ars4n)" rx="122.1383" ry="46.2818" style="stroke:#A80036;stroke-width:1.7999999999999998;"/><text fill="#000000" font-family="sans-serif" font-size="16.8" lengthAdjust="spacing" textLength="58.8" x="266.6213" y="349.7796">Sign-In</text><line style="stroke:#A80036;stroke-width:1.2;" x1="199.5503" x2="415.5264" y1="353.7417" y2="353.7417"/><text fill="#000000" font-family="sans-serif" font-size="16.8" font-weight="bold" lengthAdjust="spacing" textLength="151.2" x="220.4213" y="374.1359">Extension Point</text><text fill="#000000" font-family="sans-serif" font-size="16.8" lengthAdjust="spacing" textLength="175.2" x="208.4213" y="393.6921">Throw Account Error</text><ellipse cx="307.9041" cy="480.2877" fill="#FEFECE" filter="url(#f7lo7w47ars4n)" rx="66.7041" ry="17.6877" style="stroke:#A80036;stroke-width:1.7999999999999998;"/><text fill="#000000" font-family="sans-serif" font-size="16.8" lengthAdjust="spacing" textLength="73.2" x="267.7041" y="484.7847">Sign-Out</text><ellipse cx="792.8824" cy="368.2165" fill="#FEFECE" filter="url(#f7lo7w47ars4n)" rx="77.6824" ry="18.4165" style="stroke:#A80036;stroke-width:1.7999999999999998;"/><text fill="#000000" font-family="sans-serif" font-size="16.8" lengthAdjust="spacing" textLength="93.6" x="742.4824" y="372.7136">Show Error</text><path d="M558,240 L558,288.3187 L1027.2,288.3187 L1027.2,252 L1015.2,240 L558,240 " fill="#FBFB77" filter="url(#f7lo7w47ars4n)" style="stroke:#A80036;stroke-width:1.2;"/><path d="M1015.2,240 L1015.2,252 L1027.2,252 L1015.2,240 " fill="#FBFB77" style="stroke:#A80036;stroke-width:1.2;"/><text fill="#000000" font-family="sans-serif" font-size="15.6" font-weight="bold" lengthAdjust="spacing" textLength="88.8" x="565.2" y="260.4803">Condition:</text><text fill="#000000" font-family="sans-serif" font-size="15.6" lengthAdjust="spacing" textLength="316.8" x="692.4" y="260.4803">{Enter Invalid Username or Passphrase}</text><text fill="#000000" font-family="sans-serif" font-size="15.6" font-weight="bold" lengthAdjust="spacing" textLength="91.2" x="565.2" y="278.6396">Ext. Point:</text><text fill="#000000" font-family="sans-serif" font-size="15.6" lengthAdjust="spacing" textLength="157.2" x="694.8" y="278.6396">Throw Account Error</text><ellipse cx="307.966" cy="635.9255" fill="#FEFECE" filter="url(#f7lo7w47ars4n)" rx="124.366" ry="47.9255" style="stroke:#A80036;stroke-width:1.7999999999999998;"/><text fill="#000000" font-family="sans-serif" font-size="16.8" lengthAdjust="spacing" textLength="104.4" x="243.6593" y="613.763">Add Contact</text><line style="stroke:#A80036;stroke-width:1.2;" x1="194.1171" x2="421.815" y1="617.7252" y2="617.7252"/><text fill="#000000" font-family="sans-serif" font-size="16.8" font-weight="bold" lengthAdjust="spacing" textLength="151.2" x="220.2593" y="638.1193">Extension Point</text><text fill="#000000" font-family="sans-serif" font-size="16.8" lengthAdjust="spacing" textLength="171.6" x="210.0593" y="657.6755">Throw Contact Error</text><ellipse cx="308.0032" cy="751.3606" fill="#FEFECE" filter="url(#f7lo7w47ars4n)" rx="112.4032" ry="25.3606" style="stroke:#A80036;stroke-width:1.7999999999999998;"/><text fill="#000000" font-family="sans-serif" font-size="16.8" lengthAdjust="spacing" textLength="180" x="218.0032" y="754.7767">Get own Contact Link</text><ellipse cx="307.5406" cy="841.0281" fill="#FEFECE" filter="url(#f7lo7w47ars4n)" rx="95.7406" ry="22.0281" style="stroke:#A80036;stroke-width:1.7999999999999998;"/><text fill="#000000" font-family="sans-serif" font-size="16.8" lengthAdjust="spacing" textLength="141.6" x="234.6427" y="845.1135">Remove Contact</text><ellipse cx="307.5932" cy="941.8386" fill="#FEFECE" filter="url(#f7lo7w47ars4n)" rx="164.7932" ry="35.8386" style="stroke:#A80036;stroke-width:1.7999999999999998;"/><text fill="#000000" font-family="sans-serif" font-size="16.8" lengthAdjust="spacing" textLength="292.8" x="161.1932" y="945.2547">Accept received 'Contact Request'</text><ellipse cx="308.0544" cy="1057.0109" fill="#FEFECE" filter="url(#f7lo7w47ars4n)" rx="167.6544" ry="36.4109" style="stroke:#A80036;stroke-width:1.7999999999999998;"/><text fill="#000000" font-family="sans-serif" font-size="16.8" lengthAdjust="spacing" textLength="298.8" x="158.6544" y="1060.4269">Decline received 'Contact Request'</text><ellipse cx="792.8824" cy="740.2165" fill="#FEFECE" filter="url(#f7lo7w47ars4n)" rx="77.6824" ry="18.4165" style="stroke:#A80036;stroke-width:1.7999999999999998;"/><text fill="#000000" font-family="sans-serif" font-size="16.8" lengthAdjust="spacing" textLength="93.6" x="742.4824" y="744.7136">Show Error</text><path d="M586.8,612 L586.8,660.3188 L998.4,660.3188 L998.4,624 L986.4,612 L586.8,612 " fill="#FBFB77" filter="url(#f7lo7w47ars4n)" style="stroke:#A80036;stroke-width:1.2;"/><path d="M986.4,612 L986.4,624 L998.4,624 L986.4,612 " fill="#FBFB77" style="stroke:#A80036;stroke-width:1.2;"/><text fill="#000000" font-family="sans-serif" font-size="15.6" font-weight="bold" lengthAdjust="spacing" textLength="88.8" x="594" y="632.4803">Condition:</text><text fill="#000000" font-family="sans-serif" font-size="15.6" lengthAdjust="spacing" textLength="259.2" x="721.2" y="632.4803">{Enter invalid or redundant Link}</text><text fill="#000000" font-family="sans-serif" font-size="15.6" font-weight="bold" lengthAdjust="spacing" textLength="91.2" x="594" y="650.6396">Ext. Point:</text><text fill="#000000" font-family="sans-serif" font-size="15.6" lengthAdjust="spacing" textLength="154.8" x="723.6" y="650.6396">Throw Contact Error</text><ellipse cx="307.6244" cy="1205.8449" fill="#FEFECE" filter="url(#f7lo7w47ars4n)" rx="92.8244" ry="21.4449" style="stroke:#A80036;stroke-width:1.7999999999999998;"/><text fill="#000000" font-family="sans-serif" font-size="16.8" lengthAdjust="spacing" textLength="134.4" x="237.1599" y="1210.2544">Choose Contact</text><ellipse cx="308.0637" cy="1290.2927" fill="#FEFECE" filter="url(#f7lo7w47ars4n)" rx="89.0637" ry="20.6927" style="stroke:#A80036;stroke-width:1.7999999999999998;"/><text fill="#000000" font-family="sans-serif" font-size="16.8" lengthAdjust="spacing" textLength="124.8" x="242.0637" y="1294.7898">Write Message</text><ellipse cx="307.6012" cy="1373.0002" fill="#FEFECE" filter="url(#f7lo7w47ars4n)" rx="88.6012" ry="20.6002" style="stroke:#A80036;stroke-width:1.7999999999999998;"/><text fill="#000000" font-family="sans-serif" font-size="16.8" lengthAdjust="spacing" textLength="123.6" x="242.2012" y="1377.4973">Read Message</text><!--MD5=[8fc3522a43f8c7199df5e09e5bb0188e]
entity user--><ellipse cx="26.4" cy="770.4" fill="#FEFECE" filter="url(#f7lo7w47ars4n)" rx="9.6" ry="9.6" style="stroke:#A80036;stroke-width:1.7999999999999998;"/><path d="M26.4,780 L26.4,812.4 M10.8,789.6 L42,789.6 M26.4,812.4 L10.8,830.4 M26.4,812.4 L42,830.4 " fill="none" filter="url(#f7lo7w47ars4n)" style="stroke:#A80036;stroke-width:1.7999999999999998;"/><text fill="#000000" font-family="sans-serif" font-size="16.8" lengthAdjust="spacing" textLength="38.4" x="7.2" y="852.5941">User</text><!--MD5=[2a1e82efb226a9511e5440a09c1bc9ce]
link user to ca--><path d="M29.148,758.976 C33.804,626.184 49.428,264.528 82.8,223.2 C106.992,193.236 143.82,175.752 180.66,165.612 " fill="none" id="user-ca" style="stroke:#A80036;stroke-width:1.2;"/><!--MD5=[cd6e334a3ca6e4dc13053bed76f554f6]
link user to da--><path d="M29.712,758.976 C35.352,639.708 52.416,339.972 82.8,307.2 C117.336,269.952 173.592,259.512 221.052,258.36 " fill="none" id="user-da" style="stroke:#A80036;stroke-width:1.2;"/><!--MD5=[e87def68d1ee94b6a814f447d97cae54]
link user to si--><path d="M28.656,758.808 C31.572,670.308 42.432,488.148 82.8,441.6 C109.38,410.952 149.34,393.996 188.172,384.708 " fill="none" id="user-si" style="stroke:#A80036;stroke-width:1.2;"/><!--MD5=[be346ab184bf2706498208a8f901a919]
link user to so--><path d="M33.468,758.964 C41.736,697.68 58.596,596.952 82.8,568.8 C124.632,520.14 196.764,497.916 247.812,487.908 " fill="none" id="user-so" style="stroke:#A80036;stroke-width:1.2;"/><!--MD5=[a8085b46cfb586ef2f37d89bc49be7de]
link ca to note_acc_mgmt_err--><path d="M420.576,178.212 C501.012,196.824 608.784,221.748 687.408,239.94 " fill="none" id="ca-note_acc_mgmt_err" style="stroke:#A80036;stroke-width:1.2;stroke-dasharray:7.0,7.0;"/><!--MD5=[c5e0c9f4af324232dbe7252141885967]
link si to note_acc_mgmt_err--><path d="M413.076,350.58 C493.824,332.1 605.256,306.6 686.256,288.06 " fill="none" id="si-note_acc_mgmt_err" style="stroke:#A80036;stroke-width:1.2;stroke-dasharray:7.0,7.0;"/><!--MD5=[2868bc4d1843a35da776d956e810fdaf]
link acc_mgmt_err to note_acc_mgmt_err--><path d="M792.6,349.74 C792.6,332.496 792.6,306.78 792.6,288.012 " fill="none" id="acc_mgmt_err-note_acc_mgmt_err" style="stroke:#A80036;stroke-width:1.2;stroke-dasharray:7.0,7.0;"/><text fill="#000000" font-family="sans-serif" font-size="15.6" lengthAdjust="spacing" textLength="73.2" x="742.2" y="324.3803">«extend»</text><!--MD5=[2dbe6adb0cc1e04461feeac704358cec]
link user to add--><path d="M44.376,758.508 C53.148,739.26 65.688,718.464 82.8,704.4 C113.556,679.116 153.564,663.168 191.232,653.112 " fill="none" id="user-add" style="stroke:#A80036;stroke-width:1.2;"/><!--MD5=[61fee248f8f79c93a7a56ed2d7e7e1e8]
link user to get--><path d="M45.84,800.196 C56.196,796.236 69.456,791.532 81.6,788.4 C123,777.708 169.512,769.416 209.46,763.404 " fill="none" id="user-get" style="stroke:#A80036;stroke-width:1.2;"/><!--MD5=[b7cb1e7cdb1c6dbe32549d12c7d8fa65]
link user to rem--><path d="M45.9,809.808 C81.12,814.044 160.296,823.584 222.216,831.036 " fill="none" id="user-rem" style="stroke:#A80036;stroke-width:1.2;"/><!--MD5=[9f596c823a5e6545d7f14b020e74cc2c]
link user to accept--><path d="M45.696,842.916 C54.936,857.736 67.488,873.924 82.8,884.4 C108.3,901.836 138.708,913.992 168.768,922.476 " fill="none" id="user-accept" style="stroke:#A80036;stroke-width:1.2;"/><!--MD5=[d59431236dcb4cc8c494e4118add8749]
link user to decline--><path d="M28.764,856.248 C32.46,899.4 44.664,961.2 82.8,998.4 C103.356,1018.464 129.888,1031.904 157.464,1040.856 " fill="none" id="user-decline" style="stroke:#A80036;stroke-width:1.2;"/><!--MD5=[b09e5493a7a575691671317550daabb7]
link add to note_contact_err--><path d="M432.288,636 C479.184,636 533.976,636 586.416,636 " fill="none" id="add-note_contact_err" style="stroke:#A80036;stroke-width:1.2;stroke-dasharray:7.0,7.0;"/><!--MD5=[4a28b41aed08b34fdedf8afa11061ef7]
link contact_err to note_contact_err--><path d="M792.6,721.74 C792.6,704.496 792.6,678.78 792.6,660.012 " fill="none" id="contact_err-note_contact_err" style="stroke:#A80036;stroke-width:1.2;stroke-dasharray:7.0,7.0;"/><text fill="#000000" font-family="sans-serif" font-size="15.6" lengthAdjust="spacing" textLength="73.2" x="742.2" y="696.3803">«extend»</text><!--MD5=[d42c269097fbd04a7464cc582fdc230a]
link user to choosec--><path d="M30.768,856.5 C36.624,932.628 51.492,1074.792 82.8,1113.6 C119.088,1158.588 180.96,1181.904 230.46,1193.844 " fill="none" id="user-choosec" style="stroke:#A80036;stroke-width:1.2;"/><!--MD5=[7e4d34b18c81df3befb383c6e3e7d48a]
link user to writemsg--><path d="M26.772,856.236 C26.076,958.788 30.456,1192.368 82.8,1248 C118.152,1285.572 175.62,1295.748 223.464,1296.708 " fill="none" id="user-writemsg" style="stroke:#A80036;stroke-width:1.2;"/><!--MD5=[bbead65974bb7d5a1fbe5527a71cd9a1]
link user to readmsg--><path d="M29.484,856.62 C34.68,980.052 50.976,1296.312 82.8,1330.8 C118.056,1369.008 176.136,1379.04 224.304,1379.772 " fill="none" id="user-readmsg" style="stroke:#A80036;stroke-width:1.2;"/><!--MD5=[57ec8b6f0534fb0b4d1daef5bbe18c03]
@startuml
    actor User AS user

rectangle "BriarJar (GUI/TUI)" {
left to right direction

    package "Account Management" {

        usecase ca AS "Sign-Up Account
                - -
                **Extension Point**
                Throw Account Error"
        usecase da AS "Delete Account"
        usecase si AS "Sign-In
                - -
                **Extension Point**
                Throw Account Error"
        usecase so AS "Sign-Out"

        user - - ca
        user - - da
        user - - si
        user - - so

        usecase acc_mgmt_err AS "Show Error"

        note "**Condition:**\t{Enter Invalid Username or Passphrase}\n**Ext. Point:**\tThrow Account Error"         as note_acc_mgmt_err

        ca .. note_acc_mgmt_err
        si .. note_acc_mgmt_err
        note_acc_mgmt_err .left. acc_mgmt_err : <<extend>>
    }



    package "Contact Management" {

        usecase add AS "Add Contact
                - -
                **Extension Point**
                Throw Contact Error"
        usecase get AS "Get own Contact Link"
        usecase rem AS "Remove Contact"
        usecase accept AS "Accept received 'Contact Request'"
        usecase decline AS "Decline received 'Contact Request'"

        user - - add
        user - - get
        user - - rem
        user - - accept
        user - - decline

        usecase contact_err AS "Show Error"

        note "**Condition:**\t{Enter invalid or redundant Link}\n**Ext. Point:**\tThrow Contact Error"         as note_contact_err

        add .. note_contact_err
        note_contact_err .left. contact_err : <<extend>>
    }



    package "Conversation Management" {
        usecase choosec AS "Choose Contact"
        usecase writemsg AS "Write Message"
        usecase readmsg AS "Read Message"

        user - - choosec
        user - - writemsg
        user - - readmsg
    }



 note "=Version: DRAFT (2022-01-27)\n\n===Further needs/possibilities:\n    *Set/Change Contact's Nickname?\n    *Split Diagram into multiple ones?\n    *...\n" as intro
( ) .down. intro


}

@enduml

PlantUML version 1.2022.0(Tue Jan 11 17:16:42 CET 2022)
(GPL source distribution)
Java Runtime: OpenJDK Runtime Environment
JVM: OpenJDK 64-Bit Server VM
Default Encoding: UTF-8
Language: en
Country: GB
--></g></svg>